<svg width="87" height="25" viewBox="0 0 87 25" fill="none" xmlns="http://www.w3.org/2000/svg">
<path d="M22.6172 6.15039H26.6162C28.4385 6.15039 29.7598 6.41113 30.5801 6.93262C31.4062 7.44824 31.8193 8.27148 31.8193 9.40234C31.8193 10.1699 31.6377 10.7998 31.2744 11.292C30.917 11.7842 30.4395 12.0801 29.8418 12.1797V12.2676C30.6562 12.4492 31.2422 12.7891 31.5996 13.2871C31.9629 13.7852 32.1445 14.4473 32.1445 15.2734C32.1445 16.4453 31.7197 17.3594 30.8701 18.0156C30.0264 18.6719 28.8779 19 27.4248 19H22.6172V6.15039ZM25.3418 11.2393H26.9238C27.6621 11.2393 28.1953 11.125 28.5234 10.8965C28.8574 10.668 29.0244 10.29 29.0244 9.7627C29.0244 9.27051 28.8428 8.91895 28.4795 8.70801C28.1221 8.49121 27.5537 8.38281 26.7744 8.38281H25.3418V11.2393ZM25.3418 13.4014V16.75H27.1172C27.8672 16.75 28.4209 16.6064 28.7783 16.3193C29.1357 16.0322 29.3145 15.5928 29.3145 15.001C29.3145 13.9346 28.5527 13.4014 27.0293 13.4014H25.3418ZM40.7402 19L40.2217 17.6641H40.1514C39.7002 18.2324 39.2344 18.6279 38.7539 18.8506C38.2793 19.0674 37.6582 19.1758 36.8906 19.1758C35.9473 19.1758 35.2031 18.9062 34.6582 18.3672C34.1191 17.8281 33.8496 17.0605 33.8496 16.0645C33.8496 15.0215 34.2129 14.2539 34.9395 13.7617C35.6719 13.2637 36.7734 12.9883 38.2441 12.9355L39.9492 12.8828V12.4521C39.9492 11.4561 39.4395 10.958 38.4199 10.958C37.6348 10.958 36.7119 11.1953 35.6514 11.6699L34.7637 9.85938C35.8945 9.26758 37.1484 8.97168 38.5254 8.97168C39.8438 8.97168 40.8545 9.25879 41.5576 9.83301C42.2607 10.4072 42.6123 11.2803 42.6123 12.4521V19H40.7402ZM39.9492 14.4473L38.9121 14.4824C38.1328 14.5059 37.5527 14.6465 37.1719 14.9043C36.791 15.1621 36.6006 15.5547 36.6006 16.082C36.6006 16.8379 37.0342 17.2158 37.9014 17.2158C38.5225 17.2158 39.0176 17.0371 39.3867 16.6797C39.7617 16.3223 39.9492 15.8477 39.9492 15.2559V14.4473ZM54.4512 19H51.7705V13.2607C51.7705 12.5518 51.6445 12.0215 51.3926 11.6699C51.1406 11.3125 50.7393 11.1338 50.1885 11.1338C49.4385 11.1338 48.8965 11.3857 48.5625 11.8896C48.2285 12.3877 48.0615 13.2168 48.0615 14.377V19H45.3809V9.17383H47.4287L47.7891 10.4307H47.9385C48.2373 9.95605 48.6475 9.59863 49.1689 9.3584C49.6963 9.1123 50.2939 8.98926 50.9619 8.98926C52.1045 8.98926 52.9717 9.2998 53.5635 9.9209C54.1553 10.5361 54.4512 11.4268 54.4512 12.5928V19ZM59.7861 13.6562L60.9551 12.1621L63.7061 9.17383H66.7295L62.8271 13.4365L66.9668 19H63.873L61.043 15.0186L59.8916 15.9414V19H57.2109V5.32422H59.8916V11.4238L59.751 13.6562H59.7861ZM68.584 19V6.15039H71.3086V19H68.584ZM85.2041 12.4521C85.2041 14.5674 84.6006 16.1875 83.3936 17.3125C82.1924 18.4375 80.4551 19 78.1816 19H74.543V6.15039H78.5771C80.6748 6.15039 82.3037 6.7041 83.4639 7.81152C84.624 8.91895 85.2041 10.4658 85.2041 12.4521ZM82.374 12.5225C82.374 9.7627 81.1553 8.38281 78.7178 8.38281H77.2676V16.75H78.4365C81.0615 16.75 82.374 15.3408 82.374 12.5225Z" fill="white"/>
<path d="M12.5854 13.9593C11.3483 16.6687 10.5867 19.6606 10.2621 23.0931H4.06548C3.90224 20.7673 3.59559 17.436 2.03635 13.9612C1.7173 13.2536 1.35544 12.5534 0.958177 11.8756C1.3604 11.1214 1.72414 10.348 2.04195 9.57083C3.14931 6.86513 3.81098 4.02598 4.06237 0.906872H10.264C10.5408 3.58775 11.3564 6.64602 12.5792 9.57518C12.9026 10.3474 13.2664 11.1189 13.6655 11.8756C13.2695 12.5553 12.9082 13.2548 12.5854 13.9593ZM14.5655 11.6683C14.1347 10.8657 13.7418 10.0401 13.3967 9.21891C12.146 6.22457 11.3347 3.09739 11.1119 0.414668C11.0914 0.180037 10.8996 0 10.668 0H3.65021C3.41869 0 3.22441 0.183126 3.20703 0.421487C2.9904 3.60824 2.3405 6.48712 1.22197 9.222C0.884302 10.0469 0.492634 10.8694 0.0562714 11.6645C-0.0219388 11.8097 -0.0182121 11.9848 0.0648897 12.1245C0.500012 12.8414 0.889829 13.5862 1.22812 14.3386C2.81778 17.8797 3.0431 21.1733 3.20697 23.5785C3.22439 23.8157 3.41862 24 3.65015 24H10.668C10.8995 24 11.0913 23.8206 11.1118 23.5854C11.4023 20.0845 12.149 17.0616 13.3917 14.3429C13.7343 13.5906 14.1266 12.8445 14.5561 12.1214C14.6387 11.9836 14.643 11.8116 14.5655 11.6683" fill="white"/>
<path d="M11.6115 13.7545C11.8672 13.1127 12.1546 12.4739 12.4693 11.8545C12.3843 11.687 12.2961 11.5143 12.2055 11.3399C11.9423 10.8346 11.6686 10.3101 11.4625 9.74651C10.5724 7.30462 9.95044 4.76901 9.67297 2.47856L4.74572 22.0944H9.60283C9.76795 20.295 10.2446 17.1765 11.6115 13.7545Z" fill="white"/>
</svg>
